<svg width="78" height="78" viewBox="0 0 78 78" fill="none" xmlns="http://www.w3.org/2000/svg">
<circle cx="39" cy="39" r="38" fill="white" stroke="black" stroke-width="2"/>
<path d="M34.3333 37.4423C36.9833 36.1795 38.3667 34.2686 38.3667 31.2944C38.3667 25.429 33.9833 24 28.925 24H15V53.4434H29.3167C34.6833 53.4434 39.725 50.8762 39.725 44.8945C39.725 41.1975 37.9667 38.4641 34.3333 37.4423ZM21.4917 29.0263H27.5833C29.925 29.0263 32.0333 29.6826 32.0333 32.391C32.0333 34.8917 30.3917 35.897 28.075 35.897H21.4917V29.0263ZM28.4333 48.442H21.4917V40.3334H28.5667C31.425 40.3334 33.2333 41.5215 33.2333 44.5372C33.2333 47.5115 31.075 48.442 28.4333 48.442ZM58.3083 28.4448H46.3333V25.5453H58.3083V28.4448ZM63 43.0917C63 36.7859 59.3 31.527 52.5917 31.527C46.075 31.527 41.65 36.4121 41.65 42.8092C41.65 49.4472 45.8417 54 52.5917 54C57.7 54 61.0083 51.707 62.6 46.8302H57.4167C56.8583 48.6497 54.5583 49.6134 52.775 49.6134C49.3333 49.6134 47.525 47.6029 47.525 44.1883H62.95C62.975 43.8394 63 43.4655 63 43.0917ZM47.5333 40.4996C47.725 37.6998 49.5917 35.9468 52.4083 35.9468C55.3583 35.9468 56.8417 37.6749 57.0917 40.4996H47.5333Z" fill="#324DDA"/>
</svg>
