<svg width="19" height="20" viewBox="0 0 19 20" fill="none" xmlns="http://www.w3.org/2000/svg">
<path d="M9.5 10C8.19375 10 7.07552 9.51042 6.14531 8.53125C5.2151 7.55208 4.75 6.375 4.75 5C4.75 3.625 5.2151 2.44792 6.14531 1.46875C7.07552 0.489583 8.19375 0 9.5 0C10.8062 0 11.9245 0.489583 12.8547 1.46875C13.7849 2.44792 14.25 3.625 14.25 5C14.25 6.375 13.7849 7.55208 12.8547 8.53125C11.9245 9.51042 10.8062 10 9.5 10ZM0 20V16.5C0 15.7917 0.173177 15.1406 0.519531 14.5469C0.865885 13.9531 1.32604 13.5 1.9 13.1875C3.12708 12.5417 4.37396 12.0573 5.64062 11.7344C6.90729 11.4115 8.19375 11.25 9.5 11.25C10.8062 11.25 12.0927 11.4115 13.3594 11.7344C14.626 12.0573 15.8729 12.5417 17.1 13.1875C17.674 13.5 18.1341 13.9531 18.4805 14.5469C18.8268 15.1406 19 15.7917 19 16.5V20H0ZM2.375 17.5H16.625V16.5C16.625 16.2708 16.5706 16.0625 16.4617 15.875C16.3529 15.6875 16.2094 15.5417 16.0312 15.4375C14.9625 14.875 13.8839 14.4531 12.7953 14.1719C11.7068 13.8906 10.6083 13.75 9.5 13.75C8.39167 13.75 7.29323 13.8906 6.20469 14.1719C5.11615 14.4531 4.0375 14.875 2.96875 15.4375C2.79062 15.5417 2.64714 15.6875 2.53828 15.875C2.42943 16.0625 2.375 16.2708 2.375 16.5V17.5ZM9.5 7.5C10.1531 7.5 10.7122 7.25521 11.1773 6.76562C11.6424 6.27604 11.875 5.6875 11.875 5C11.875 4.3125 11.6424 3.72396 11.1773 3.23438C10.7122 2.74479 10.1531 2.5 9.5 2.5C8.84688 2.5 8.28776 2.74479 7.82266 3.23438C7.35755 3.72396 7.125 4.3125 7.125 5C7.125 5.6875 7.35755 6.27604 7.82266 6.76562C8.28776 7.25521 8.84688 7.5 9.5 7.5Z" fill="#9164BE"/>
</svg>
