<svg width="78" height="78" viewBox="0 0 78 78" fill="none" xmlns="http://www.w3.org/2000/svg">
<circle cx="39" cy="39" r="38" fill="white" stroke="black" stroke-width="2"/>
<path d="M52.2 25.8H48.5333V23.2187C48.5333 21.5694 47.8782 19.9876 46.7119 18.8214C45.5457 17.6552 43.964 17 42.3147 17H35.6853C34.8687 17 34.06 17.1609 33.3056 17.4734C32.5511 17.7859 31.8655 18.2439 31.2881 18.8214C30.1218 19.9876 29.4667 21.5694 29.4667 23.2187V25.8H25.8C23.4661 25.8 21.2278 26.7271 19.5775 28.3775C17.9271 30.0278 17 32.2661 17 34.6V52.2C17 54.5339 17.9271 56.7722 19.5775 58.4225C21.2278 60.0729 23.4661 61 25.8 61H52.2C54.5339 61 56.7722 60.0729 58.4225 58.4225C60.0729 56.7722 61 54.5339 61 52.2V34.6C61 32.2661 60.0729 30.0278 58.4225 28.3775C56.7722 26.7271 54.5339 25.8 52.2 25.8ZM33.8667 23.2187C33.8667 22.7363 34.0583 22.2737 34.3993 21.9327C34.7404 21.5916 35.203 21.4 35.6853 21.4H42.3147C42.797 21.4 43.2596 21.5916 43.6007 21.9327C43.9417 22.2737 44.1333 22.7363 44.1333 23.2187V25.8H33.8667V23.2187ZM50.7333 53.6667H27.2667C26.6832 53.6667 26.1236 53.4349 25.711 53.0223C25.2985 52.6097 25.0667 52.0501 25.0667 51.4667C25.0667 50.8832 25.2985 50.3236 25.711 49.911C26.1236 49.4985 26.6832 49.2667 27.2667 49.2667H50.7333C51.3168 49.2667 51.8764 49.4985 52.289 49.911C52.7015 50.3236 52.9333 50.8832 52.9333 51.4667C52.9333 52.0501 52.7015 52.6097 52.289 53.0223C51.8764 53.4349 51.3168 53.6667 50.7333 53.6667ZM50.7333 46.3333H27.2667C26.6832 46.3333 26.1236 46.1015 25.711 45.689C25.2985 45.2764 25.0667 44.7168 25.0667 44.1333C25.0667 43.5499 25.2985 42.9903 25.711 42.5777C26.1236 42.1651 26.6832 41.9333 27.2667 41.9333H50.7333C51.3168 41.9333 51.8764 42.1651 52.289 42.5777C52.7015 42.9903 52.9333 43.5499 52.9333 44.1333C52.9333 44.7168 52.7015 45.2764 52.289 45.689C51.8764 46.1015 51.3168 46.3333 50.7333 46.3333ZM50.7333 39H27.2667C26.6832 39 26.1236 38.7682 25.711 38.3556C25.2985 37.9431 25.0667 37.3835 25.0667 36.8C25.0667 36.2165 25.2985 35.6569 25.711 35.2444C26.1236 34.8318 26.6832 34.6 27.2667 34.6H50.7333C51.3168 34.6 51.8764 34.8318 52.289 35.2444C52.7015 35.6569 52.9333 36.2165 52.9333 36.8C52.9333 37.3835 52.7015 37.9431 52.289 38.3556C51.8764 38.7682 51.3168 39 50.7333 39Z" fill="#324DDA"/>
</svg>
