<svg width="89" height="89" viewBox="0 0 89 89" fill="none" xmlns="http://www.w3.org/2000/svg">
<mask id="mask0_125_5" style="mask-type:luminance" maskUnits="userSpaceOnUse" x="8" y="16" width="72" height="57">
<path d="M79.5735 16.02H8.25568V72.98H79.5735V16.02Z" fill="white"/>
</mask>
<g mask="url(#mask0_125_5)">
<path d="M16.1231 23.4639C15.9885 19.5912 18.9991 16.02 23.0683 16.02H64.7661C68.8353 16.02 71.846 19.5912 71.7116 23.4639C71.5819 27.1841 71.7499 32.003 72.96 35.9323C74.1741 39.8737 76.2211 42.365 79.5737 42.6851V46.3149C76.2211 46.6351 74.1741 49.1264 72.96 53.0678C71.7499 56.997 71.5819 61.8159 71.7116 65.5361C71.846 69.4087 68.8353 72.98 64.7661 72.98H23.0683C18.9991 72.98 15.9885 69.4087 16.1232 65.5361C16.2524 61.8159 16.0845 56.997 14.8743 53.0678C13.6605 49.1264 11.6085 46.6351 8.25568 46.3149V42.6851C11.6083 42.365 13.6605 39.8737 14.8743 35.9323C16.0845 32.003 16.2524 27.1841 16.1231 23.4639Z" fill="url(#paint0_linear_125_5)"/>
<g filter="url(#filter0_d_125_5)">
<path d="M45.4612 59.6413C52.0494 59.6413 56.0193 56.4084 56.0193 51.0759C56.0193 47.045 53.1867 44.1267 48.9806 43.6648V43.4968C52.0708 42.993 54.4957 40.1167 54.4957 36.9047C54.4957 32.3279 50.8905 29.3466 45.3969 29.3466H33.036V59.6413H45.4612ZM37.843 33.1886H44.238C47.7145 33.1886 49.6887 34.7422 49.6887 37.5554C49.6887 40.5577 47.3927 42.2371 43.2295 42.2371H37.843V33.1886ZM37.843 55.7996V45.8273H44.195C48.7445 45.8273 51.1051 47.5068 51.1051 50.782C51.1051 54.0571 48.8089 55.7996 44.474 55.7996H37.843Z" fill="url(#paint1_linear_125_5)"/>
<path d="M45.4612 59.6413C52.0494 59.6413 56.0193 56.4084 56.0193 51.0759C56.0193 47.045 53.1867 44.1267 48.9806 43.6648V43.4968C52.0708 42.993 54.4957 40.1167 54.4957 36.9047C54.4957 32.3279 50.8905 29.3466 45.3969 29.3466H33.036V59.6413H45.4612ZM37.843 33.1886H44.238C47.7145 33.1886 49.6887 34.7422 49.6887 37.5554C49.6887 40.5577 47.3927 42.2371 43.2295 42.2371H37.843V33.1886ZM37.843 55.7996V45.8273H44.195C48.7445 45.8273 51.1051 47.5068 51.1051 50.782C51.1051 54.0571 48.8089 55.7996 44.474 55.7996H37.843Z" stroke="white"/>
</g>
</g>
<defs>
<filter id="filter0_d_125_5" x="16.536" y="16.8466" width="55.9833" height="63.2948" filterUnits="userSpaceOnUse" color-interpolation-filters="sRGB">
<feFlood flood-opacity="0" result="BackgroundImageFix"/>
<feColorMatrix in="SourceAlpha" type="matrix" values="0 0 0 0 0 0 0 0 0 0 0 0 0 0 0 0 0 0 127 0" result="hardAlpha"/>
<feOffset dy="4"/>
<feGaussianBlur stdDeviation="8"/>
<feColorMatrix type="matrix" values="0 0 0 0 0 0 0 0 0 0 0 0 0 0 0 0 0 0 0.15 0"/>
<feBlend mode="normal" in2="BackgroundImageFix" result="effect1_dropShadow_125_5"/>
<feBlend mode="normal" in="SourceGraphic" in2="effect1_dropShadow_125_5" result="shape"/>
</filter>
<linearGradient id="paint0_linear_125_5" x1="18.8529" y1="17.5275" x2="81.2814" y2="66.9716" gradientUnits="userSpaceOnUse">
<stop stop-color="#9013FE"/>
<stop offset="1" stop-color="#6610F2"/>
</linearGradient>
<linearGradient id="paint1_linear_125_5" x1="35.21" y1="31.3406" x2="49.1868" y2="54.9251" gradientUnits="userSpaceOnUse">
<stop stop-color="white"/>
<stop offset="1" stop-color="#F1E5FC"/>
</linearGradient>
</defs>
</svg>
