<svg width="18" height="23" viewBox="0 0 18 23" fill="none" xmlns="http://www.w3.org/2000/svg">
<path d="M5.625 12.65H7.875V9.4875H10.125V12.65H12.375V7.1875L9 4.8875L5.625 7.1875V12.65ZM9 19.9525C11.2875 17.8058 12.9844 15.8556 14.0906 14.1019C15.1969 12.3481 15.75 10.7908 15.75 9.43C15.75 7.34083 15.0984 5.63021 13.7953 4.29813C12.4922 2.96604 10.8938 2.3 9 2.3C7.10625 2.3 5.50781 2.96604 4.20469 4.29813C2.90156 5.63021 2.25 7.34083 2.25 9.43C2.25 10.7908 2.80312 12.3481 3.90937 14.1019C5.01562 15.8556 6.7125 17.8058 9 19.9525ZM9 23C5.98125 20.3742 3.72656 17.9352 2.23594 15.6831C0.745312 13.431 0 11.3467 0 9.43C0 6.555 0.904687 4.26458 2.71406 2.55875C4.52344 0.852917 6.61875 0 9 0C11.3813 0 13.4766 0.852917 15.2859 2.55875C17.0953 4.26458 18 6.555 18 9.43C18 11.3467 17.2547 13.431 15.7641 15.6831C14.2734 17.9352 12.0188 20.3742 9 23Z" fill="#9164BE"/>
</svg>
